<?xml version="1.0" encoding="UTF-8" standalone="no"?>
<!DOCTYPE svg PUBLIC "-//W3C//DTD SVG 1.1//EN" "http://www.w3.org/Graphics/SVG/1.1/DTD/svg11.dtd">
<svg width="100%" height="100%" viewBox="0 0 171 171" version="1.1" xmlns="http://www.w3.org/2000/svg" xmlns:xlink="http://www.w3.org/1999/xlink" xml:space="preserve" xmlns:serif="http://www.serif.com/" style="fill-rule:evenodd;clip-rule:evenodd;stroke-linecap:round;stroke-linejoin:round;stroke-miterlimit:2;">
    <path d="M160.185,160.186L9.921,160.186L9.921,9.921L160.185,9.921L160.185,160.186ZM164.646,1L5.461,1C5.461,1 5.46,1 5.46,1C3.013,1 1,3.013 1,5.46L1,164.646C1,167.093 3.013,169.106 5.46,169.107L164.646,169.107C167.093,169.107 169.107,167.093 169.107,164.646L169.107,5.461C169.106,3.014 167.093,1.001 164.646,1Z" style="fill:rgb(13,206,180);fill-rule:nonzero;"/>
    <path d="M56.063,41C56.063,41 37.921,62.77 56.063,84.54C74.204,106.311 56.063,128.081 56.063,128.081M85.09,41C85.09,41 66.948,62.77 85.09,84.54C103.231,106.311 85.09,128.081 85.09,128.081M114.117,41C114.117,41 95.976,62.77 114.117,84.54C132.259,106.311 114.117,128.081 114.117,128.081" style="fill:none;fill-rule:nonzero;stroke:rgb(13,206,180);stroke-width:10px;"/>
</svg>
